<svg xmlns="http://www.w3.org/2000/svg" width="163.281" height="34.938" viewBox="0 0 163.281 34.938">
  <path id="logo_site" d="M199.58,204.911v33.6h13.532a15.723,15.723,0,0,0,11.72-4.824,17.575,17.575,0,0,0,0-23.952,15.723,15.723,0,0,0-11.72-4.824H199.58Zm7.733,26.208V212.3h5.8a8.646,8.646,0,0,1,6.5,2.568,10.643,10.643,0,0,1,0,13.68,8.646,8.646,0,0,1-6.5,2.568h-5.8Zm34.8-5.952h12.082v-7.3H242.109V212.3H255.4v-7.392H234.376v33.6h21.265v-7.392H242.109v-5.952Zm36.343,13.344,11.019-33.6h-8.458l-7.491,24.72-7.491-24.72h-8.457l11.019,33.6h9.859Zm14.4,0h7.733v-33.6h-7.733v33.6Zm38.615-1.416a15.514,15.514,0,0,0,6.041-5.688l-6.67-3.84a7.49,7.49,0,0,1-3.165,3.024,9.88,9.88,0,0,1-4.664,1.1,9.594,9.594,0,0,1-7.177-2.736,11.135,11.135,0,0,1,0-14.5,9.594,9.594,0,0,1,7.177-2.736,9.914,9.914,0,0,1,4.64,1.08,7.6,7.6,0,0,1,3.189,3.048l6.67-3.84a15.881,15.881,0,0,0-6.09-5.688,17.419,17.419,0,0,0-8.409-2.088,17.475,17.475,0,1,0,0,34.944A17.519,17.519,0,0,0,331.468,237.1Zm17.881-11.928h12.082v-7.3H349.349V212.3h13.29v-7.392H341.617v33.6h21.264v-7.392H349.349v-5.952Z" transform="translate(-199.594 -204.25)"/>
</svg>
